<?xml version="1.0" encoding="utf-8"?>
<!-- Generator: Adobe Illustrator 25.0.0, SVG Export Plug-In . SVG Version: 6.00 Build 0)  -->
<svg version="1.1" id="Layer_1" xmlns="http://www.w3.org/2000/svg" xmlns:xlink="http://www.w3.org/1999/xlink" x="0px" y="0px"
	 viewBox="0 0 100 100" style="enable-background:new 0 0 100 100;" xml:space="preserve">
<style type="text/css">
	.st0{fill:#FFFFFF;}
	.st1{fill:#FEFEFE;}
</style>
<g>
	<g>
		<ellipse class="st0" cx="50" cy="49.5" rx="47.5" ry="44"/>
		<path d="M50,6c25.92,0,47,19.51,47,43.5S75.92,93,50,93S3,73.49,3,49.5S24.08,6,50,6 M50,5C23.49,5,2,24.92,2,49.5S23.49,94,50,94
			s48-19.92,48-44.5S76.51,5,50,5L50,5z"/>
	</g>
	<g>
		<path class="st1" d="M51.96,17.01c9.19,0,18.38,0,27.58-0.01c0.39,0,0.46,0.08,0.46,0.46c-0.01,20.02-0.01,40.05,0,60.07
			c0,0.39-0.08,0.46-0.46,0.46c-19.02-0.01-38.05-0.01-57.07,0C22.08,78,22,77.92,22,77.54c0.01-20.02,0.01-40.05,0-60.07
			c0-0.39,0.08-0.46,0.46-0.46c8.85,0.01,17.71,0.01,26.56,0.01c-0.05,0.15-0.18,0.1-0.28,0.11c-1.38,0.23-2.72,0.5-3.98,1.2
			c-1.32,0.73-2.57,1.5-3.65,2.58c-1.31,1.3-2.37,2.74-3.15,4.41c-1.39,2.97-1.67,6.09-1.11,9.27c0.69,3.89,2.8,6.94,5.9,9.32
			c1.18,0.91,2.55,1.53,3.95,1.93c2.75,0.78,5.53,0.83,8.26-0.25c1.49-0.59,2.89-1.27,4.12-2.33c1.29-1.1,2.38-2.34,3.27-3.77
			c0.55-0.87,0.99-1.81,1.32-2.79c0.67-2.05,0.89-4.14,0.74-6.29c-0.15-2.04-0.68-3.96-1.62-5.77c-0.88-1.69-2.08-3.18-3.53-4.4
			c-1.52-1.28-3.23-2.29-5.2-2.77C53.37,17.29,52.66,17.16,51.96,17.01z M50.89,77.88c0,0,0-0.01,0-0.01
			c4.84,0,9.68,0.05,14.52-0.02c2.85-0.04,5.35-1.02,7.25-3.27c1.53-1.81,2.23-3.94,2.34-6.26c0.13-3.02-0.12-6.02-0.67-9
			c-0.49-2.64-1.32-5.16-2.68-7.48c-0.96-1.65-2.26-2.98-3.87-3.98c-1.4-0.86-2.97-1.21-4.61-1.36c-1.01-0.09-1.89,0.13-2.72,0.68
			c-0.49,0.33-0.98,0.65-1.45,1.03c-1.33,1.06-2.91,1.67-4.45,2.32c-0.83,0.35-1.74,0.49-2.64,0.54c-1.83,0.1-3.59-0.07-5.31-0.84
			c-1.27-0.57-2.55-1.12-3.67-1.95c-0.58-0.43-1.17-0.86-1.79-1.23c-0.59-0.35-1.2-0.6-1.91-0.58c-3.48,0.1-6.27,1.5-8.35,4.32
			c-0.9,1.22-1.57,2.56-2.12,3.95c-0.66,1.66-1.08,3.4-1.37,5.16c-0.51,3.1-0.82,6.21-0.49,9.34c0.31,2.93,1.66,5.32,4.1,7
			c1.84,1.27,3.97,1.63,6.17,1.63C41.73,77.87,46.31,77.88,50.89,77.88z"/>
		<path d="M51.96,17.01c0.7,0.15,1.41,0.28,2.11,0.45c1.97,0.48,3.68,1.49,5.2,2.77c1.45,1.22,2.65,2.71,3.53,4.4
			c0.94,1.8,1.47,3.73,1.62,5.77c0.16,2.15-0.07,4.25-0.74,6.29c-0.32,0.98-0.77,1.92-1.32,2.79c-0.89,1.42-1.98,2.66-3.27,3.77
			c-1.24,1.06-2.63,1.74-4.12,2.33c-2.73,1.08-5.51,1.04-8.26,0.25c-1.4-0.4-2.77-1.02-3.95-1.93c-3.1-2.38-5.21-5.43-5.9-9.32
			c-0.56-3.18-0.28-6.3,1.11-9.27c0.78-1.67,1.84-3.12,3.15-4.41c1.08-1.07,2.33-1.84,3.65-2.58c1.26-0.7,2.6-0.98,3.98-1.2
			c0.1-0.02,0.23,0.04,0.28-0.11C50,17.01,50.98,17.01,51.96,17.01z"/>
		<path d="M50.89,77.88c-4.58,0-9.15,0-13.73,0c-2.2,0-4.33-0.36-6.17-1.63c-2.44-1.68-3.78-4.07-4.1-7
			c-0.33-3.13-0.02-6.25,0.49-9.34c0.29-1.77,0.71-3.5,1.37-5.16c0.56-1.39,1.22-2.73,2.12-3.95c2.08-2.83,4.88-4.22,8.35-4.32
			c0.71-0.02,1.32,0.23,1.91,0.58c0.62,0.37,1.2,0.8,1.79,1.23c1.12,0.83,2.4,1.37,3.67,1.95c1.72,0.78,3.48,0.94,5.31,0.84
			c0.9-0.05,1.81-0.19,2.64-0.54c1.54-0.66,3.13-1.26,4.45-2.32c0.47-0.37,0.96-0.7,1.45-1.03c0.83-0.55,1.71-0.78,2.72-0.68
			c1.63,0.15,3.21,0.5,4.61,1.36c1.61,0.99,2.91,2.33,3.87,3.98c1.36,2.33,2.19,4.85,2.68,7.48c0.56,2.97,0.81,5.98,0.67,9
			c-0.1,2.33-0.8,4.45-2.34,6.26c-1.9,2.25-4.4,3.23-7.25,3.27c-4.84,0.07-9.68,0.02-14.52,0.02
			C50.89,77.87,50.89,77.87,50.89,77.88z"/>
	</g>
</g>
</svg>
