<?xml version="1.0" encoding="utf-8"?>
<!-- Generator: Adobe Illustrator 25.0.0, SVG Export Plug-In . SVG Version: 6.00 Build 0)  -->
<svg version="1.1" id="Layer_1" xmlns="http://www.w3.org/2000/svg" xmlns:xlink="http://www.w3.org/1999/xlink" x="0px" y="0px"
	 viewBox="0 0 100 100" style="enable-background:new 0 0 100 100;" xml:space="preserve">
<style type="text/css">
	.st0{clip-path:url(#SVGID_2_);}
	.st1{fill:#27B99D;}
	.st2{fill:#FCFCFB;}
	.st3{fill:#FDFEFE;}
	.st4{fill:#F5B996;}
	.st5{fill:#2F373B;}
	.st6{fill:#E9A17F;}
	.st7{fill:#161B1D;}
	.st8{fill:#161C1D;}
	.st9{fill:#F3B996;}
	.st10{fill:#D5D1CB;}
	.st11{fill:#F43C6C;}
	.st12{fill:#1B1F21;}
	.st13{fill:#353B3E;}
</style>
<g>
	<defs>
		<circle id="SVGID_1_" cx="50" cy="50" r="50"/>
	</defs>
	<clipPath id="SVGID_2_">
		<use xlink:href="#SVGID_1_"  style="overflow:visible;"/>
	</clipPath>
	<g class="st0">
		<g>
			<path class="st1" d="M-1.19,53.43c0-2.82,0-5.64,0-8.46c0.25-0.09,0.19-0.32,0.21-0.51c0.66-6.86,2.48-13.39,5.82-19.42
				C13.19,9.98,25.86,1,42.86-1.83c1.1-0.18,2.25-0.11,3.31-0.56c2.75,0,5.51,0,8.26,0c0.16,0.33,0.47,0.18,0.71,0.21
				c1.97,0.21,3.93,0.47,5.86,0.89C71.68,1.02,80.83,6.1,88.2,14.15c10.42,11.39,14.9,24.89,13.5,40.23
				c-0.93,10.21-4.8,19.33-11.26,27.31c-4.08,5.03-8.91,9.19-14.6,12.33c-0.03-2.32,0.07-4.64-0.1-6.95
				c-0.44-6.11-3.14-11.01-8.18-14.56c-1.78-1.36-3.87-2.1-5.89-2.99c-0.54-0.33-1.09-0.65-1.6-1.01c-0.75-0.53-1.7-0.77-2.27-1.56
				c3.01-0.88,5.63-2.46,8.01-4.48c2.92-2.47,5.04-5.53,6.57-9.02c0.71,0.32,1.4,0.67,2.2,0.7c2.69,0.32,4.84-0.63,6.29-2.9
				c1.43-2.24,1.39-4.62-0.05-6.83c-1.45-2.22-3.59-3.13-6.24-2.81c-0.2,0.03-0.4,0.05-0.6,0.08c-0.35-4.15-0.7-8.3-1.06-12.45
				c0.06-0.35,0.33-0.57,0.55-0.82c4.95-5.51,4.95-13.96,0.01-19.47c-0.41-0.45-0.66-0.51-1.1-0.05c-1.49,1.54-3.04,3.03-4.53,4.57
				c-0.45,0.47-0.92,0.67-1.58,0.66c-4.63-0.03-9.25-0.04-13.88-0.02c-0.59,0-1.18-0.31-1.78-0.02c-3.45-0.06-6.89-0.23-10.34,0.01
				c-6.53,0.45-12.52,6.53-12.82,13.08c-0.13,2.94-0.22,5.89-0.45,8.83c-0.15,1.87-0.02,3.76-0.36,5.61
				c-0.13-0.01-0.27-0.01-0.4-0.02c-2.64-0.31-4.79,0.59-6.24,2.81c-1.45,2.22-1.48,4.59-0.05,6.83c1.44,2.27,3.6,3.22,6.29,2.9
				c0.42-0.09,0.9-0.09,1.24-0.3c0.88-0.53,1.19-0.08,1.53,0.66c1.7,3.69,4.24,6.7,7.5,9.12c2.03,1.51,4.32,2.51,6.64,3.46
				c-1.34,0.81-2.69,1.63-4.03,2.44c-2.03,0.84-4.07,1.66-5.88,2.95c-5.22,3.77-7.99,8.87-8.2,15.31c-0.07,2.07-0.04,4.15-0.06,6.22
				c-0.09-0.04-0.19-0.07-0.28-0.12C10.54,85.39,2.05,73.04-0.63,56.73C-0.81,55.63-0.73,54.48-1.19,53.43z"/>
			<path class="st2" d="M-1.19,53.43c0.46,1.05,0.38,2.2,0.56,3.3C2.05,73.04,10.54,85.39,24.68,93.9c0.09,0.05,0.18,0.08,0.28,0.12
				c1.33,0.91,2.79,1.57,4.25,2.22c4.01,1.79,8.15,3.16,12.51,3.76c2.15,0.54,4.35,0.59,6.57,0.77c-1.93-6.56-3.84-13.06-5.75-19.56
				c1.48-0.85,2.96-1.69,4.42-2.56c0.43-0.25,0.69-0.28,1.1,0.13c1.43,1.46,3.29,1.44,4.66-0.06c0.36-0.39,0.58-0.39,0.98-0.15
				c1.49,0.89,3,1.76,4.5,2.63c-1.91,6.49-3.83,12.98-5.77,19.57c2.29-0.19,4.49-0.26,6.64-0.78c1.7-0.15,3.35-0.6,4.99-1.06
				c4.13-1.15,8.09-2.71,11.78-4.92c5.68-3.14,10.52-7.3,14.6-12.33c6.47-7.97,10.33-17.09,11.26-27.31
				c1.4-15.34-3.08-28.84-13.5-40.23C80.83,6.1,71.68,1.02,61-1.29c-1.93-0.42-3.9-0.68-5.86-0.89c-0.24-0.03-0.55,0.12-0.71-0.21
				c15.65,0,31.3,0.01,46.95-0.02c0.69,0,0.83,0.14,0.83,0.83c-0.02,33.92-0.02,67.84,0,101.76c0,0.69-0.14,0.83-0.83,0.83
				c-33.92-0.02-67.84-0.02-101.76,0c-0.69,0-0.83-0.13-0.83-0.83C-1.18,84.59-1.19,69.01-1.19,53.43z M50.43,95.58
				c1.02-0.01,1.83-0.82,1.84-1.85c0.01-1.07-0.84-1.9-1.9-1.89c-1.07,0.02-1.87,0.87-1.83,1.95
				C48.57,94.82,49.39,95.59,50.43,95.58z M52.27,83.33c-0.01-1.01-0.86-1.86-1.85-1.87c-1.03-0.01-1.9,0.87-1.89,1.93
				c0.01,1.01,0.85,1.85,1.85,1.87C51.41,85.27,52.29,84.38,52.27,83.33z"/>
			<path class="st3" d="M46.17-2.39c-1.06,0.45-2.2,0.37-3.31,0.56C25.86,1,13.19,9.98,4.85,25.03C1.51,31.06-0.31,37.6-0.97,44.45
				c-0.02,0.19,0.04,0.42-0.21,0.51c0-15.5,0.01-31-0.02-46.5c0-0.73,0.15-0.88,0.88-0.88C15.17-2.38,30.67-2.39,46.17-2.39z"/>
			<path class="st4" d="M72.38,53.46c-1.53,3.49-3.65,6.55-6.57,9.02c-2.37,2.01-5,3.6-8.01,4.48c-0.18,0.06-0.37,0.11-0.55,0.17
				c-1.26,0.3-2.46,0.89-3.82,0.6c-7.27-1.57-12.77-5.58-16.31-12.11c-2.13-3.92-3.05-8.15-2.69-12.68
				c0.26-3.23,1.07-6.24,2.47-9.14c0.82-1.71,2.04-3.13,3.02-4.72c3.95-0.01,7.91-0.02,11.86-0.05c0.37,0,0.62,0.16,0.88,0.39
				c4.14,3.68,8.9,4.69,14.21,3.26c0.53,3.48,1.07,6.95,1.58,10.43c0.09,0.59,0.24,0.69,0.81,0.49c1.46-0.49,2.94-0.89,4.42-1.32
				c0.09,0.14,0.25,0.27,0.25,0.41c0.02,1.56,0.09,3.12-0.05,4.69C73.69,49.49,72.94,51.45,72.38,53.46z M60.24,41.94l0.02,0.02
				c0.14-0.11,0.08-0.22,0.01-0.34c-0.67-1.12-2.29-1.49-3.44-0.8c-1.31,0.79-1.77,2.29-1.07,3.53c0.74,1.31,2.29,1.83,3.51,1.18
				c1.33-0.71,1.9-2.29,1.27-3.48C60.48,41.93,60.39,41.84,60.24,41.94z M50.25,56.13c0.6-0.03,1.21,0,1.8-0.1
				c1.32-0.22,2.62-0.54,3.8-1.21c0.56-0.32,1.02-0.77,0.7-1.47c-0.32-0.71-0.96-0.6-1.57-0.4c-0.13,0.04-0.24,0.11-0.37,0.17
				c-1.95,0.86-3.95,1.12-6.07,0.75c-1.01-0.18-1.9-0.63-2.84-0.95c-0.57-0.19-1.17-0.22-1.47,0.44c-0.27,0.6,0.08,1.03,0.54,1.36
				c0.16,0.12,0.35,0.2,0.53,0.29C46.87,55.74,48.53,56.11,50.25,56.13z M42.67,40.48c-1.44,0-2.7,1.26-2.68,2.69
				c0.02,1.38,1.26,2.61,2.65,2.63c1.45,0.02,2.72-1.21,2.73-2.64C45.37,41.71,44.12,40.47,42.67,40.48z M50.46,49.8
				c0.8,0,1.61,0,2.41,0c0.78,0.01,1.35-0.32,1.33-1.14c-0.02-0.75-0.56-1.08-1.3-1.08c-1.67,0.01-3.34,0-5.02,0
				c-0.75,0-1.27,0.35-1.28,1.09c-0.02,0.76,0.5,1.12,1.25,1.12C48.72,49.81,49.59,49.8,50.46,49.8z"/>
			<path class="st5" d="M66.88,32.68c-5.31,1.43-10.07,0.42-14.21-3.26c-0.26-0.23-0.51-0.39-0.88-0.39
				c-3.95,0.02-7.91,0.03-11.86,0.05c-0.48-0.03-0.95-0.05-1.43-0.08c0.01-1,0.02-2,0.2-2.99c0.81-4.45,3.19-7.78,7.06-10.08
				c1.51-0.9,3.19-1.31,4.84-1.83c0.59-0.29,1.18,0.02,1.78,0.02c4.63-0.02,9.25-0.01,13.88,0.02c0.66,0,1.13-0.19,1.58-0.66
				c1.49-1.54,3.04-3.03,4.53-4.57c0.45-0.46,0.7-0.4,1.1,0.05c4.94,5.51,4.95,13.96-0.01,19.47c-0.22,0.25-0.49,0.47-0.55,0.82
				c-0.15,0.07-0.33,0.1-0.44,0.2C70.85,30.94,68.96,31.98,66.88,32.68z"/>
			<path class="st6" d="M38.5,29.01c0.48,0.03,0.95,0.05,1.43,0.08c-0.99,1.59-2.2,3.01-3.02,4.72c-1.4,2.91-2.21,5.91-2.47,9.14
				c-0.36,4.53,0.56,8.76,2.69,12.68c3.54,6.52,9.04,10.54,16.31,12.11c1.35,0.29,2.56-0.3,3.82-0.6c-0.01,0.8-0.01,1.6-0.02,2.41
				c-2.81,0.9-5.67,1.53-8.64,1.42c-0.8-0.03-0.95,0.37-0.7,1c0.27,0.68,0.6,1.34,0.9,2.01c-0.56,0.22-0.72,1.3-1.61,0.8
				c-1.02-0.57-2.02-1.19-3.02-1.79c-0.07-0.07-0.14-0.14-0.22-0.21c0,0,0.01,0.01,0.01,0.01c-0.27-1.69-0.5-3.39-0.4-5.12
				c0.02-0.3-0.09-0.52-0.42-0.57c-2.32-0.95-4.6-1.95-6.64-3.46c-3.26-2.42-5.8-5.43-7.5-9.12c-0.34-0.73-0.65-1.19-1.53-0.66
				c-0.35,0.21-0.83,0.21-1.24,0.3c-0.2-1.08-0.46-2.15-0.58-3.23c-0.06-0.55-0.3-0.8-0.76-0.87C23.72,49.9,23,48.64,23,47.89
				c0-0.98,0.71-1.8,1.86-2.18c0.3-0.1,0.67-0.12,0.74-0.56c0.19-1.18,0.41-2.35,0.62-3.53c0.13,0.01,0.27,0.01,0.4,0.02
				c-0.01,0.45,0.23,0.61,0.65,0.73c1.35,0.38,2.7,0.76,4.01,1.24c0.78,0.29,0.89-0.02,0.98-0.68c0.65-4.42,1.34-8.84,1.97-13.26
				c0.08-0.55,0.29-0.63,0.75-0.63C36.16,29.05,37.33,29.02,38.5,29.01z"/>
			<path class="st5" d="M75.84,94.02c-3.69,2.21-7.65,3.77-11.78,4.92c-1.64,0.46-3.28,0.9-4.99,1.06c0.1-0.35,0.17-0.72,0.31-1.06
				c1.56-3.82,3.13-7.63,4.7-11.44c0.66-1.59,0.66-1.62-1.11-1.62c-0.81,0-0.88-0.21-0.58-0.92c1.74-4.14,3.45-8.3,5.16-12.45
				c5.04,3.55,7.74,8.45,8.18,14.56C75.91,89.38,75.82,91.71,75.84,94.02z"/>
			<path class="st5" d="M41.72,100c-4.37-0.61-8.5-1.98-12.51-3.76c-1.46-0.65-2.92-1.31-4.25-2.22c0.02-2.07-0.01-4.15,0.06-6.22
				c0.22-6.44,2.98-11.54,8.2-15.31c1.8,4.42,3.6,8.83,5.45,13.38c-0.72,0-1.29,0.01-1.85,0c-0.58-0.01-0.81,0.14-0.55,0.77
				c0.8,1.88,1.56,3.77,2.33,5.66C39.65,94.86,40.68,97.43,41.72,100z"/>
			<path class="st7" d="M38.5,29.01c-1.17,0.01-2.34,0.04-3.51,0.03c-0.47,0-0.67,0.08-0.75,0.63c-0.63,4.42-1.33,8.84-1.97,13.26
				c-0.1,0.66-0.2,0.97-0.98,0.68c-1.31-0.48-2.66-0.86-4.01-1.24c-0.42-0.12-0.66-0.28-0.65-0.73c0.34-1.85,0.21-3.74,0.36-5.61
				c0.23-2.94,0.32-5.88,0.45-8.83c0.3-6.55,6.29-12.63,12.82-13.08c3.45-0.24,6.9-0.07,10.34-0.01c-1.65,0.52-3.33,0.93-4.84,1.83
				c-3.87,2.3-6.25,5.63-7.06,10.08C38.52,27.01,38.51,28.01,38.5,29.01z"/>
			<path class="st7" d="M41.72,100c-1.04-2.57-2.07-5.14-3.12-7.71c-0.77-1.89-1.53-3.78-2.33-5.66c-0.27-0.63-0.03-0.78,0.55-0.77
				c0.56,0.01,1.13,0,1.85,0c-1.85-4.55-3.65-8.97-5.45-13.38c1.81-1.29,3.85-2.11,5.88-2.95c0.47,1.52,0.94,3.05,1.41,4.57
				c0.02,1.7,0.03,3.41,0.05,5.11c0.02,1.51,0.47,1.97,1.98,1.99c1.91,6.5,3.82,13,5.75,19.56C46.07,100.6,43.87,100.55,41.72,100z"
				/>
			<path class="st7" d="M67.57,72.52c-1.72,4.15-3.42,8.31-5.16,12.45c-0.3,0.71-0.23,0.92,0.58,0.92c1.77-0.01,1.77,0.03,1.11,1.62
				c-1.57,3.81-3.14,7.62-4.7,11.44c-0.14,0.34-0.21,0.7-0.31,1.06c-2.15,0.52-4.35,0.59-6.64,0.78c1.94-6.59,3.86-13.08,5.77-19.57
				c1.56,0.01,2.02-0.45,2.03-2.02c0.02-1.77,0.03-3.53,0.05-5.3c0.46-1.45,0.92-2.9,1.39-4.36C63.69,70.42,65.79,71.16,67.57,72.52
				z"/>
			<path class="st8" d="M66.88,32.68c2.08-0.7,3.97-1.74,5.59-3.23c0.11-0.1,0.3-0.14,0.44-0.2c0.35,4.15,0.7,8.3,1.06,12.45
				c-0.01,0.24-0.09,0.44-0.28,0.58c-1.47,0.44-2.96,0.84-4.42,1.32c-0.58,0.19-0.73,0.09-0.81-0.49
				C67.95,39.63,67.41,36.16,66.88,32.68z"/>
			<path class="st9" d="M74.58,41.62c2.64-0.32,4.79,0.6,6.24,2.81c1.45,2.22,1.48,4.59,0.05,6.83c-1.44,2.27-3.6,3.22-6.29,2.9
				c0.2-1.08,0.46-2.15,0.58-3.23c0.06-0.55,0.3-0.8,0.77-0.86c1.17-0.17,1.87-1.42,1.88-2.17c0-0.98-0.71-1.8-1.86-2.18
				c-0.3-0.1-0.67-0.12-0.74-0.56C75,43.97,74.78,42.8,74.58,41.62z"/>
			<path class="st9" d="M26.22,41.62c-0.21,1.18-0.42,2.35-0.62,3.53c-0.07,0.44-0.44,0.46-0.74,0.56c-1.15,0.38-1.87,1.2-1.86,2.18
				c0,0.75,0.72,2.01,1.88,2.17c0.46,0.07,0.7,0.32,0.76,0.87c0.12,1.09,0.38,2.16,0.58,3.23c-2.69,0.32-4.85-0.63-6.29-2.9
				c-1.43-2.24-1.39-4.62,0.05-6.83C21.43,42.21,23.58,41.31,26.22,41.62z"/>
			<path class="st6" d="M74.58,41.62c0.21,1.18,0.42,2.35,0.62,3.53c0.07,0.44,0.44,0.46,0.74,0.56c1.15,0.38,1.87,1.2,1.86,2.18
				c0,0.75-0.71,2-1.88,2.17c-0.46,0.07-0.71,0.31-0.77,0.86c-0.12,1.09-0.38,2.16-0.58,3.23c-0.8-0.02-1.49-0.38-2.2-0.7
				c0.56-2.01,1.31-3.97,1.51-6.08c0.15-1.57,0.07-3.13,0.05-4.69c0-0.14-0.16-0.27-0.25-0.41c0.19-0.15,0.28-0.35,0.28-0.58
				C74.18,41.67,74.38,41.65,74.58,41.62z"/>
			<path class="st10" d="M40.51,74.11c-0.47-1.52-0.94-3.05-1.41-4.57c1.34-0.81,2.69-1.63,4.03-2.44c0.33,0.05,0.43,0.27,0.42,0.57
				c-0.1,1.72,0.13,3.42,0.4,5.12c-0.21-0.08-0.46-0.11-0.63-0.24C41.86,71.39,40.37,72.47,40.51,74.11z"/>
			<path class="st10" d="M61.67,69.53c-0.46,1.45-0.92,2.9-1.39,4.36c-0.28-1.76-1.17-2.21-2.7-1.4c-0.23,0.12-0.49,0.2-0.73,0.3
				c0.14-1.08,0.57-2.14,0.37-3.26c0.01-0.8,0.01-1.6,0.02-2.41c0.18-0.06,0.37-0.11,0.55-0.17c0.57,0.79,1.52,1.03,2.27,1.56
				C60.58,68.89,61.14,69.2,61.67,69.53z"/>
			<path class="st11" d="M56.85,72.79c0.24-0.1,0.5-0.18,0.73-0.3c1.53-0.82,2.42-0.36,2.7,1.4c-0.02,1.77-0.03,3.53-0.05,5.3
				c-0.01,1.57-0.48,2.03-2.03,2.02c-1.5-0.87-3.01-1.74-4.5-2.63c-0.4-0.24-0.63-0.24-0.98,0.15c-1.37,1.49-3.23,1.52-4.66,0.06
				c-0.4-0.41-0.67-0.38-1.1-0.13c-1.47,0.87-2.95,1.71-4.42,2.56c-1.51-0.02-1.96-0.47-1.98-1.99c-0.02-1.7-0.03-3.41-0.05-5.11
				c-0.14-1.64,1.35-2.72,2.81-1.57c0.17,0.13,0.42,0.16,0.63,0.24c0,0-0.01-0.01-0.01-0.01c0.07,0.07,0.14,0.14,0.22,0.21
				c1.01,0.6,2,1.22,3.02,1.79c0.89,0.49,1.05-0.58,1.61-0.8c1.47-0.65,2.8-0.45,3.93,0.71c0.29,0.3,0.52,0.33,0.86,0.13
				c1.02-0.62,2.05-1.23,3.08-1.84c0.07-0.06,0.14-0.13,0.21-0.19L56.85,72.79z"/>
			<path class="st12" d="M50.43,95.58c-1.04,0.01-1.86-0.76-1.9-1.78c-0.04-1.08,0.76-1.93,1.83-1.95c1.06-0.02,1.91,0.82,1.9,1.89
				C52.26,94.75,51.45,95.56,50.43,95.58z"/>
			<path class="st12" d="M52.27,83.33c0.01,1.05-0.87,1.94-1.9,1.92c-1-0.02-1.84-0.86-1.85-1.87c-0.01-1.05,0.86-1.94,1.89-1.93
				C51.41,81.47,52.26,82.33,52.27,83.33z"/>
			<path class="st6" d="M50.25,56.13c-1.73-0.02-3.38-0.38-4.94-1.12c-0.18-0.09-0.37-0.17-0.53-0.29
				c-0.47-0.34-0.81-0.77-0.54-1.36c0.3-0.66,0.9-0.63,1.47-0.44c0.95,0.32,1.83,0.77,2.84,0.95c2.12,0.38,4.12,0.11,6.07-0.75
				c0.12-0.05,0.24-0.12,0.37-0.17c0.61-0.2,1.24-0.3,1.57,0.4c0.32,0.7-0.15,1.15-0.7,1.47c-1.18,0.67-2.48,0.99-3.8,1.21
				C51.46,56.13,50.85,56.1,50.25,56.13z"/>
			<path class="st13" d="M42.67,40.48c1.45,0,2.7,1.24,2.69,2.68c-0.01,1.43-1.27,2.66-2.73,2.64c-1.39-0.02-2.63-1.25-2.65-2.63
				C39.96,41.74,41.22,40.48,42.67,40.48z M43.6,43.78c0.72-0.04,1.15-0.4,1.16-1.11c0.01-0.71-0.41-1.12-1.12-1.13
				c-0.65,0-1.07,0.39-1.1,1.05C42.52,43.3,42.93,43.69,43.6,43.78z"/>
			<path class="st13" d="M60.24,41.94c0.15-0.11,0.24-0.01,0.3,0.11c0.64,1.19,0.06,2.77-1.27,3.48c-1.23,0.65-2.77,0.13-3.51-1.18
				c-0.7-1.24-0.25-2.74,1.07-3.53c1.15-0.69,2.77-0.32,3.44,0.8c0.07,0.11,0.13,0.23-0.01,0.34c-0.17-0.1-0.33-0.21-0.5-0.3
				c-0.51-0.25-0.98-0.17-1.35,0.25c-0.37,0.42-0.4,0.9-0.08,1.38c0.33,0.48,0.81,0.59,1.32,0.41c0.52-0.18,0.76-0.62,0.71-1.18
				C60.33,42.33,60.28,42.14,60.24,41.94z"/>
			<path class="st6" d="M50.46,49.8c-0.87,0-1.74,0-2.61,0c-0.74-0.01-1.26-0.37-1.25-1.12c0.02-0.75,0.54-1.1,1.28-1.09
				c1.67,0,3.34,0,5.02,0c0.74,0,1.28,0.33,1.3,1.08c0.02,0.82-0.55,1.15-1.33,1.14C52.06,49.8,51.26,49.8,50.46,49.8z"/>
			<path class="st4" d="M56.65,72.96c-1.03,0.61-2.05,1.22-3.08,1.84c-0.34,0.21-0.57,0.17-0.86-0.13
				c-1.13-1.16-2.46-1.36-3.93-0.71c-0.3-0.67-0.63-1.33-0.9-2.01c-0.25-0.64-0.1-1.03,0.7-1c2.98,0.11,5.83-0.51,8.64-1.42
				c0.19,1.12-0.23,2.17-0.37,3.26c0,0,0-0.02,0-0.02C56.79,72.84,56.72,72.9,56.65,72.96z"/>
			<path class="st10" d="M44.16,72.98c-0.07-0.07-0.14-0.14-0.22-0.21C44.01,72.84,44.08,72.91,44.16,72.98z"/>
			<path class="st10" d="M56.65,72.96c0.07-0.06,0.14-0.13,0.21-0.19C56.79,72.84,56.72,72.9,56.65,72.96z"/>
			<path class="st2" d="M43.6,43.78c-0.68-0.1-1.09-0.48-1.05-1.19c0.03-0.65,0.45-1.05,1.1-1.05c0.7,0,1.12,0.42,1.12,1.13
				C44.76,43.38,44.32,43.74,43.6,43.78z"/>
			<path class="st2" d="M60.24,41.94c0.04,0.19,0.09,0.39,0.11,0.58c0.05,0.56-0.19,1-0.71,1.18c-0.51,0.18-0.99,0.07-1.32-0.41
				c-0.32-0.47-0.29-0.95,0.08-1.38c0.37-0.42,0.84-0.5,1.35-0.25c0.17,0.09,0.34,0.2,0.5,0.3C60.26,41.96,60.24,41.94,60.24,41.94z
				"/>
		</g>
	</g>
</g>
</svg>
