<?xml version="1.0" encoding="utf-8"?>
<!-- Generator: Adobe Illustrator 25.0.0, SVG Export Plug-In . SVG Version: 6.00 Build 0)  -->
<svg version="1.1" id="Layer_1" xmlns="http://www.w3.org/2000/svg" xmlns:xlink="http://www.w3.org/1999/xlink" x="0px" y="0px"
	 viewBox="0 0 100 100" style="enable-background:new 0 0 100 100;" xml:space="preserve">
<style type="text/css">
	.st0{fill:#FFFFFF;}
	.st1{fill:#FEFEFE;}
	.st2{fill:#FBFBFB;}
	.st3{fill:#FCFCFC;}
</style>
<g>
	<ellipse class="st0" cx="49.89" cy="50.09" rx="47.5" ry="44"/>
	<path d="M49.89,6.59c25.92,0,47,19.51,47,43.5s-21.08,43.5-47,43.5s-47-19.51-47-43.5S23.97,6.59,49.89,6.59 M49.89,5.59
		c-26.51,0-48,19.92-48,44.5s21.49,44.5,48,44.5s48-19.92,48-44.5S76.4,5.59,49.89,5.59L49.89,5.59z"/>
</g>
<g>
	<g>
		<path d="M20.01,65.02c0-12.79,0-25.58,0-38.37c0.34-0.48,0.45-1.06,0.82-1.54c0.68-0.88,1.49-1.49,2.55-1.82
			c0.21-0.06,0.47-0.05,0.6-0.28c17.24,0,34.48,0,51.72,0c0.03,0.03,0.06,0.09,0.1,0.1c1.95,0.37,3.36,1.36,3.93,3.34
			c0.05,0.16,0.04,0.36,0.27,0.42c0,12.58,0,25.15,0,37.73c-0.14,0.14-0.18,0.32-0.22,0.51c-0.33,1.47-1.22,2.46-2.57,3.11
			c-0.83,0.4-1.7,0.52-2.6,0.53c-3.33,0.01-6.65,0-9.98,0c-3.88,0-7.76,0.01-11.64-0.01c-0.45,0-0.56,0.12-0.55,0.56
			c0.03,1.16,0.03,2.32,0,3.48c-0.01,0.43,0.13,0.52,0.54,0.52c2.56,0.02,5.11-0.12,7.67,0.07c1.99,0.15,4.03,1.84,4.29,3.93
			c0.06,0.47-0.01,0.59-0.51,0.58c-9.6-0.02-19.21-0.01-28.81-0.01c-0.13,0-0.25,0-0.38,0c-0.12,0-0.2-0.02-0.19-0.18
			c0.07-0.94,0.3-1.85,0.94-2.57c1.18-1.34,2.71-1.86,4.47-1.84c2.13,0.02,4.26-0.01,6.38,0.02c0.46,0.01,0.65-0.08,0.63-0.6
			c-0.05-1.12-0.04-2.25,0-3.37c0.02-0.51-0.15-0.61-0.62-0.6c-6.94,0.02-13.88,0.01-20.81,0.01c-0.61,0-1.22,0-1.82-0.09
			c-1.18-0.17-2.2-0.66-3-1.57C20.67,66.48,20.3,65.77,20.01,65.02z M47.5,56.15c0.52,0,1.04-0.01,1.55,0.01
			c0.26,0.01,0.38-0.06,0.44-0.33c0.28-1.2,0.51-2.41,0.87-3.6c0.52-1.74,0.81-3.55,1.28-5.32c0.6-2.28,1.09-4.58,1.67-6.87
			c0.34-1.34,0.54-2.7,1-4.01c0.05-0.15,0.26-0.47-0.21-0.47c-1.09,0.01-2.18,0.01-3.27,0c-0.17,0-0.28,0.05-0.3,0.22
			c-0.06,0.57-0.34,1.06-0.48,1.61c-0.4,1.63-0.69,3.29-1.16,4.9c-0.56,1.92-0.86,3.9-1.41,5.83c-0.39,1.37-0.57,2.8-0.98,4.16
			c-0.34,1.14-0.54,2.3-0.85,3.44c-0.09,0.32-0.02,0.45,0.34,0.42C46.5,56.13,47,56.15,47.5,56.15z M69.97,45.87
			c0.07-0.79-0.42-1.3-0.92-1.77c-1.15-1.07-2.33-2.11-3.49-3.18c-1.01-0.92-2-1.86-3.01-2.78c-0.1-0.1-0.18-0.37-0.41-0.15
			c-0.77,0.7-1.54,1.4-2.32,2.1c-0.15,0.14-0.17,0.24-0.01,0.38c0.65,0.6,1.28,1.24,1.94,1.82c1.25,1.1,2.48,2.22,3.68,3.37
			c0.13,0.12,0.21,0.21,0.03,0.38c-0.76,0.7-1.49,1.42-2.25,2.12c-1.12,1.03-2.25,2.04-3.38,3.06c-0.2,0.18-0.17,0.3,0.01,0.46
			c0.73,0.64,1.46,1.29,2.16,1.95c0.21,0.2,0.31,0.17,0.5-0.01c0.58-0.57,1.18-1.13,1.78-1.68c1.74-1.56,3.5-3.1,5.15-4.75
			C69.84,46.81,69.92,46.36,69.97,45.87z M37.74,37.89c-0.07,0.06-0.13,0.12-0.21,0.17c-0.66,0.42-1.14,1.04-1.73,1.55
			c-1.16,0.99-2.22,2.1-3.37,3.09c-0.5,0.43-0.91,0.94-1.45,1.32c-1.18,0.85-1.31,2.67-0.17,3.56c0.6,0.47,1.11,1.03,1.69,1.52
			c1.17,1,2.23,2.13,3.41,3.13c0.54,0.46,0.98,1.01,1.57,1.41c0.23,0.15,0.32,0.15,0.51-0.03c0.7-0.65,1.41-1.29,2.13-1.91
			c0.24-0.21,0.23-0.36-0.01-0.54c-0.1-0.07-0.21-0.12-0.3-0.2c-1.76-1.61-3.51-3.23-5.28-4.83c-0.27-0.25-0.2-0.38,0.03-0.57
			c0.6-0.52,1.21-1.03,1.79-1.57c1.25-1.18,2.51-2.35,3.81-3.47c0.19-0.16,0.21-0.29,0.01-0.46c-0.75-0.67-1.5-1.35-2.24-2.02
			C37.86,38,37.81,37.96,37.74,37.89z"/>
		<path class="st1" d="M20.01,65.02c0.29,0.75,0.66,1.46,1.2,2.07c0.8,0.9,1.83,1.4,3,1.57c0.6,0.08,1.21,0.09,1.82,0.09
			c6.94,0.01,13.88,0.01,20.81-0.01c0.47,0,0.64,0.09,0.62,0.6c-0.04,1.12-0.05,2.25,0,3.37c0.02,0.52-0.16,0.6-0.63,0.6
			c-2.13-0.02-4.26,0.01-6.38-0.02c-1.76-0.02-3.29,0.51-4.47,1.84c-0.63,0.72-0.87,1.62-0.94,2.57c-0.01,0.15,0.07,0.18,0.19,0.18
			c0.13,0,0.25,0,0.38,0c9.6,0,19.21-0.01,28.81,0.01c0.5,0,0.56-0.12,0.51-0.58c-0.26-2.09-2.29-3.79-4.29-3.93
			c-2.55-0.19-5.11-0.05-7.67-0.07c-0.41,0-0.55-0.09-0.54-0.52c0.03-1.16,0.03-2.32,0-3.48c-0.01-0.44,0.1-0.57,0.55-0.56
			c3.88,0.02,7.76,0.01,11.64,0.01c3.33,0,6.65,0.01,9.98,0c0.89,0,1.76-0.12,2.6-0.53c1.35-0.65,2.25-1.64,2.57-3.11
			c0.04-0.19,0.07-0.37,0.22-0.51c0,4.34,0,8.68,0.01,13.02c0,0.32-0.06,0.38-0.38,0.38c-19.74-0.01-39.49-0.01-59.23,0
			C20.06,78,20,77.94,20,77.62C20.01,73.42,20.01,69.22,20.01,65.02z"/>
		<path class="st2" d="M79.99,26.87c-0.22-0.05-0.22-0.26-0.27-0.42c-0.57-1.99-1.98-2.97-3.93-3.34c-0.04-0.01-0.07-0.06-0.1-0.1
			c1.34,0,2.68,0.01,4.02-0.01c0.23,0,0.28,0.04,0.28,0.27C79.98,24.47,79.99,25.67,79.99,26.87z"/>
		<path class="st2" d="M23.98,23.01c-0.13,0.24-0.39,0.22-0.6,0.28c-1.06,0.32-1.87,0.94-2.55,1.82c-0.38,0.48-0.48,1.07-0.82,1.54
			c0-1.13,0.01-2.25-0.01-3.38c0-0.23,0.04-0.28,0.28-0.28C21.51,23.01,22.75,23.01,23.98,23.01z"/>
		<path class="st3" d="M47.5,56.15c-0.5,0-1-0.02-1.5,0.01c-0.36,0.02-0.43-0.1-0.34-0.42c0.31-1.14,0.51-2.3,0.85-3.44
			c0.4-1.36,0.58-2.79,0.98-4.16c0.55-1.93,0.85-3.92,1.41-5.83c0.47-1.62,0.76-3.27,1.16-4.9c0.13-0.54,0.42-1.04,0.48-1.61
			c0.02-0.17,0.13-0.22,0.3-0.22c1.09,0.01,2.18,0.01,3.27,0c0.47-0.01,0.27,0.31,0.21,0.47c-0.46,1.31-0.66,2.68-1,4.01
			c-0.58,2.28-1.06,4.59-1.67,6.87c-0.47,1.77-0.76,3.57-1.28,5.32c-0.36,1.19-0.59,2.4-0.87,3.6c-0.06,0.26-0.19,0.34-0.44,0.33
			C48.54,56.14,48.02,56.15,47.5,56.15z"/>
		<path class="st2" d="M69.97,45.87c-0.04,0.49-0.13,0.94-0.52,1.33c-1.65,1.65-3.41,3.19-5.15,4.75c-0.61,0.55-1.2,1.11-1.78,1.68
			c-0.19,0.18-0.29,0.21-0.5,0.01c-0.7-0.67-1.44-1.31-2.16-1.95c-0.18-0.16-0.21-0.28-0.01-0.46c1.13-1.01,2.26-2.03,3.38-3.06
			c0.76-0.7,1.49-1.42,2.25-2.12c0.18-0.17,0.1-0.25-0.03-0.38c-1.21-1.15-2.43-2.27-3.68-3.37c-0.67-0.58-1.29-1.22-1.94-1.82
			c-0.16-0.15-0.15-0.25,0.01-0.38c0.78-0.7,1.55-1.4,2.32-2.1c0.24-0.22,0.31,0.05,0.41,0.15c1.01,0.92,2,1.85,3.01,2.78
			c1.16,1.06,2.34,2.1,3.49,3.18C69.55,44.58,70.04,45.08,69.97,45.87z"/>
		<path class="st2" d="M37.74,37.89c0.07,0.06,0.12,0.11,0.18,0.16c0.75,0.67,1.49,1.35,2.24,2.02c0.2,0.18,0.18,0.3-0.01,0.46
			c-1.3,1.12-2.56,2.29-3.81,3.47c-0.58,0.55-1.19,1.06-1.79,1.57c-0.22,0.19-0.3,0.32-0.03,0.57c1.77,1.6,3.52,3.22,5.28,4.83
			c0.09,0.08,0.2,0.13,0.3,0.2c0.24,0.17,0.26,0.33,0.01,0.54c-0.72,0.63-1.43,1.26-2.13,1.91c-0.19,0.18-0.28,0.18-0.51,0.03
			c-0.59-0.4-1.04-0.95-1.57-1.41c-1.17-1-2.24-2.13-3.41-3.13c-0.58-0.49-1.09-1.05-1.69-1.52c-1.14-0.89-1.01-2.71,0.17-3.56
			c0.53-0.38,0.95-0.89,1.45-1.32c1.15-1,2.21-2.1,3.37-3.09c0.59-0.5,1.07-1.13,1.73-1.55C37.6,38.02,37.66,37.95,37.74,37.89z"/>
	</g>
</g>
</svg>
